Coordinates
version=1
nRows=54
nColumns=12
inDegrees=yes

Units are S.I. units (second, meters, Newtons, ...)
Angles are in degrees

endheader
time	SC_y	SC_z	SC_x	AC_y	AC_z	AC_x	GH_y	GH_z	GH_yy	EL_x	PS_y
       0.0              -28.91          1.458          6.269          57.25          3.471         -3.106         -9.963          3.875          68.19          37.43          73.39
  0.008385              -28.91          1.459           6.27          57.25          3.471         -3.107         -9.936          3.883          68.16          37.43          73.39
   0.01677              -28.91           1.46          6.272          57.25          3.472         -3.107         -9.907          3.893          68.13          37.44          73.39
   0.02515              -28.91           1.46          6.273          57.25          3.472         -3.108         -9.876          3.902           68.1          37.44          73.39
   0.03354              -28.91          1.461          6.275          57.25          3.473         -3.109         -9.843          3.913          68.07          37.44          73.39
   0.04192               -28.9          1.462          6.276          57.25          3.473          -3.11         -9.808          3.924          68.03          37.45          73.39
   0.05031               -28.9          1.463          6.278          57.25          3.474         -3.111          -9.77          3.935           68.0          37.45           73.4
   0.05869               -28.9          1.464           6.28          57.25          3.474         -3.112          -9.73          3.948          67.96          37.46           73.4
   0.06708               -28.9          1.465          6.282          57.25          3.475         -3.113         -9.687          3.962          67.91          37.46           73.4
   0.07546              -28.89          1.466          6.284          57.25          3.476         -3.115         -9.642          3.976          67.87          37.47           73.4
   0.08385              -28.89          1.467          6.286          57.25          3.476         -3.116         -9.592          3.992          67.82          37.47           73.4
   0.09223              -28.89          1.468          6.289          57.25          3.477         -3.117         -9.539          4.008          67.77          37.48           73.4
    0.1006              -28.88           1.47          6.292          57.26          3.478         -3.119         -9.482          4.026          67.71          37.49           73.4
     0.109              -28.88          1.471          6.295          57.26          3.479          -3.12          -9.42          4.046          67.65          37.49           73.4
    0.1174              -28.88          1.473          6.298          57.26           3.48         -3.122         -9.353          4.067          67.58           37.5           73.4
    0.1258              -28.87          1.474          6.301          57.26          3.481         -3.124          -9.28           4.09          67.51          37.51           73.4
    0.1342              -28.87          1.476          6.305          57.26          3.482         -3.126         -9.201          4.114          67.43          37.52           73.4
    0.1425              -28.86          1.478          6.309          57.26          3.484         -3.129         -9.116          4.141          67.35          37.53           73.4
    0.1509              -28.86          1.481          6.313          57.26          3.485         -3.131         -9.022          4.171          67.26          37.54           73.4
    0.1593              -28.85          1.483          6.318          57.26          3.487         -3.134         -8.919          4.203          67.15          37.55           73.4
    0.1677              -28.85          1.486          6.323          57.26          3.488         -3.137         -8.806          4.239          67.04          37.56           73.4
    0.1761              -28.84          1.489          6.329          57.26           3.49          -3.14         -8.682          4.278          66.92          37.58           73.4
    0.1845              -28.83          1.492          6.336          57.26          3.492         -3.144         -8.545          4.321          66.78           37.6           73.4
    0.1929              -28.82          1.495          6.343          57.26          3.495         -3.148         -8.393          4.369          66.63          37.61           73.4
    0.2012              -28.81          1.499          6.351          57.27          3.497         -3.152         -8.224          4.422          66.47          37.63           73.4
    0.2096               -28.8          1.504           6.36          57.27            3.5         -3.157         -8.035          4.481          66.28          37.65           73.4
     0.218              -28.79          1.509           6.37          57.27          3.503         -3.163         -7.824          4.548          66.07          37.68           73.4
    0.2264              -28.77          1.514          6.381          57.27          3.507         -3.169         -7.587          4.622          65.84          37.71          73.41
    0.2348              -28.76          1.521          6.394          57.27          3.511         -3.177         -7.318          4.707          65.57          37.74          73.41
    0.2432              -28.74          1.528          6.408          57.28          3.516         -3.185         -7.013          4.803          65.27          37.77          73.41
    0.2515              -28.72          1.536          6.424          57.28          3.521         -3.194         -6.665          4.912          64.93          37.82          73.41
    0.2599               -28.7          1.546          6.443          57.28          3.527         -3.205         -6.266          5.038          64.53          37.86          73.41
    0.2683              -28.67          1.556          6.465          57.29          3.534         -3.217         -5.805          5.183          64.07          37.92          73.41
    0.2767              -28.64          1.569           6.49          57.29          3.543         -3.231          -5.27          5.351          63.55          37.98          73.42
    0.2851               -28.6          1.584           6.52           57.3          3.552         -3.248         -4.643          5.548          62.93          38.05          73.42
    0.2935              -28.56          1.601          6.554           57.3          3.564         -3.268         -3.904          5.781          62.19          38.14          73.42
    0.3019              -28.51          1.622          6.596          57.31          3.577         -3.291         -3.026          6.057          61.33          38.24          73.43
    0.3102              -28.45          1.647          6.645          57.32          3.593         -3.319         -1.974          6.388          60.29          38.36          73.43
    0.3186              -28.37          1.677          6.705          57.33          3.613         -3.353         -0.701          6.788          59.03          38.51          73.44
     0.327              -28.28          1.714          6.779          57.35          3.636         -3.395         0.8542          7.278          57.49          38.69          73.45
    0.3354              -28.17          1.759          6.869          57.36          3.666         -3.446          2.774          7.881          55.59          38.92          73.45
    0.3438              -28.03          1.816          6.982          57.38          3.703          -3.51          5.167          8.634          53.22           39.2          73.47
    0.3522              -27.85          1.887          7.124          57.41          3.749         -3.591          8.182          9.583          50.24          39.55          73.48
    0.3605              -27.63          1.977          7.304          57.45          3.807         -3.693          12.02          10.79          46.45           40.0           73.5
    0.3689              -27.34          2.093          7.536          57.49          3.883         -3.824          16.92          12.33           41.6          40.57          73.52
    0.3773              -26.97          2.242          7.832          57.54          3.979         -3.993          23.22          14.31          35.38          41.31          73.55
    0.3857               -26.5          2.432          8.211          57.62          4.102         -4.208          31.26          16.84          27.42          42.25          73.59
    0.3941              -25.91           2.67          8.687           57.7          4.257         -4.478          41.37          20.02          17.42          43.43          73.64
    0.4025              -25.19          2.961          9.268          57.81          4.446         -4.807          53.69           23.9          5.238          44.88           73.7
    0.4109              -24.36          3.299          9.941          57.94          4.665         -5.189          67.98          28.39         -8.886          46.55          73.77
    0.4192              -23.45          3.664          10.67          58.08          4.902         -5.602          83.44          33.26         -24.18          48.36          73.84
    0.4276              -22.55          4.029           11.4          58.21          5.139         -6.015          98.91          38.12         -39.47          50.17          73.91
     0.436              -21.71          4.366          12.07          58.34          5.358         -6.397          113.2          42.62          -53.6          51.84          73.98
    0.4444              -20.99          4.657          12.65          58.45          5.547         -6.726          125.5          46.49         -65.78          53.28          74.04
